<svg viewBox="0 0 245 240" xmlns="http://www.w3.org/2000/svg"><path d="M104.4 103.9c-5.7 0-10.2 5-10.2 11.1s4.6 11.1 10.2 11.1c5.7 0 10.2-5 10.2-11.1.1-6.1-4.5-11.1-10.2-11.1zm36.2 0c-5.7 0-10.2 5-10.2 11.1s4.6 11.1 10.2 11.1c5.7 0 10.2-5 10.2-11.1s-4.5-11.1-10.2-11.1z"></path><path d="M189.5 20h-134C32.9 20 20 33.7 20 50.4v139.2c0 16.7 12.9 30.4 35.5 30.4h114.3l-5.3-18.5 12.8 11.9 12.1 11.2 21.5 19V50.4c0-16.7-12.9-30.4-35.4-30.4zm-39 131.7s-3.7-4.4-6.8-8.3c13.5-3.8 18.6-12.1 18.6-12.1-4.2 2.7-8.2 4.6-11.8 5.9-5.1 2.1-10 3.5-14.8 4.3-9.8 1.8-18.8 1.3-26.6-.1-5.8-1.1-10.8-2.6-15-4.3-2.3-.9-4.7-2-7.1-3.4-.3-.2-.6-.3-.9-.5-.2-.1-.3-.2-.4-.2-1.8-1-2.8-1.7-2.8-1.7s5 8.1 18.2 12c-3.1 3.9-6.9 8.5-6.9 8.5-22.7-.7-31.3-15.6-31.3-15.6 0-32.9 14.7-59.6 14.7-59.6 14.7-11 28.7-10.7 28.7-10.7l1 1.2c-18.4 5.3-26.8 13.3-26.8 13.3s2.2-1.2 5.9-2.9c10.7-4.7 19.2-6 22.7-6.3.6-.1 1.1-.2 1.7-.2 6.1-.8 13-1 20.2-.2 9.5 1.1 19.7 3.9 30.1 9.6 0 0-8-7.6-25.3-12.9l1.4-1.6s14-.3 28.7 10.7c0 0 14.7 26.7 14.7 59.6 0 0-8.7 14.9-31.4 15.6z"></path></svg>
